<svg width="24" height="20" viewBox="0 0 24 20" fill="none" xmlns="http://www.w3.org/2000/svg">
<path d="M23 1.01005C22.0424 1.68553 20.9821 2.20216 19.86 2.54006C19.2577 1.84757 18.4573 1.35675 17.567 1.13398C16.6767 0.911219 15.7395 0.967249 14.8821 1.29451C14.0247 1.62177 13.2884 2.20446 12.773 2.96377C12.2575 3.72309 11.9877 4.62239 12 5.54005V6.54005C10.2426 6.58562 8.50127 6.19587 6.93101 5.4055C5.36074 4.61513 4.01032 3.44869 3 2.01005C3 2.01005 -1 11.0101 8 15.0101C5.94053 16.4081 3.48716 17.109 1 17.0101C10 22.0101 21 17.0101 21 5.51005C21 5.23005 20.97 4.95006 20.92 4.68006C21.9406 3.67355 22.6608 2.40277 23 1.01005Z" stroke="white" stroke-width="2" stroke-linecap="round" stroke-linejoin="round"/>
</svg>
